<?xml version="1.0" encoding="UTF-8"?>
<svg width="256" height="256" viewBox="0 0 128 128" fill="none" xmlns="http://www.w3.org/2000/svg" role="img">
  <title>Naija Recipes Pot</title>
  <desc>Wine-themed pot illustration matching the app UI</desc>
  <g opacity="0.9">
    <circle cx="64" cy="64" r="56" fill="#FCE7F1"/>
  </g>
  <g stroke="#7C1D3D" stroke-width="3" stroke-linecap="round" stroke-linejoin="round">
    <!-- Handles -->
    <path d="M28 66c-6 0-12 3-12 10s6 10 12 10" fill="none"/>
    <path d="M100 86c6 0 12-3 12-10s-6-10-12-10" fill="none"/>
    <!-- Pot body -->
    <rect x="28" y="58" width="72" height="34" rx="10" fill="#FFFFFF"/>
    <!-- Inner stripe -->
    <rect x="28" y="70" width="72" height="6" rx="3" fill="#FDF2F8" stroke="none"/>
    <!-- Lid rim -->
    <path d="M22 58h84"/>
    <!-- Lid top -->
    <path d="M34 52h60c5 0 9 2 12 6H22c3-4 7-6 12-6z" fill="#FFFFFF"/>
    <!-- Knob -->
    <circle cx="64" cy="46" r="4" fill="#7C1D3D" stroke="#7C1D3D"/>
  </g>
  <!-- Steam -->
  <g stroke="#7C1D3D" stroke-width="2" opacity="0.45" stroke-linecap="round">
    <path d="M50 38c-4-4 4-6 0-10"/>
    <path d="M64 36c-4-4 4-6 0-10"/>
    <path d="M78 38c-4-4 4-6 0-10"/>
  </g>
</svg>
